{"accessors":[{"bufferView":0,"componentType":5126,"count":1,"max":[0.0],"min":[0.0],"normalized":false,"type":"SCALAR"},{"bufferView":1,"componentType":5126,"count":1,"max":[35.0,-505.0,0.0],"min":[35.0,-505.0,0.0],"normalized":false,"type":"VEC3"},{"bufferView":2,"componentType":5126,"count":2,"max":[1.5333333015441895],"min":[0.0],"normalized":false,"type":"SCALAR"},{"bufferView":3,"componentType":5126,"count":2,"max":[81.0,-505.0,0.0],"min":[35.0,-506.0,0.0],"normalized":false,"type":"VEC3"},{"bufferView":4,"componentType":5126,"count":1,"max":[161.0,-506.0,0.0],"min":[161.0,-506.0,0.0],"normalized":false,"type":"VEC3"},{"bufferView":5,"componentType":5126,"count":2,"max":[208.0,-506.0,0.0],"min":[161.0,-506.0,0.0],"normalized":false,"type":"VEC3"},{"bufferView":6,"componentType":5126,"count":1,"max":[0.0,-602.0,0.0],"min":[0.0,-602.0,0.0],"normalized":false,"type":"VEC3"},{"bufferView":7,"componentType":5126,"count":2,"max":[0.0,-602.0,0.0],"min":[-49.0,-602.0,0.0],"normalized":false,"type":"VEC3"}],"animations":[{"channels":[{"sampler":0,"target":{"node":8,"path":"translation"}}],"name":"RESET","samplers":[{"input":0,"interpolation":"LINEAR","output":1}]},{"channels":[{"sampler":0,"target":{"node":8,"path":"translation"}}],"name":"move1","samplers":[{"input":2,"interpolation":"LINEAR","output":3}]},{"channels":[{"sampler":0,"target":{"node":11,"path":"translation"}}],"name":"RESET2","samplers":[{"input":0,"interpolation":"LINEAR","output":4}]},{"channels":[{"sampler":0,"target":{"node":11,"path":"translation"}}],"name":"move2","samplers":[{"input":2,"interpolation":"LINEAR","output":5}]},{"channels":[{"sampler":0,"target":{"node":14,"path":"translation"}}],"name":"RESET3","samplers":[{"input":0,"interpolation":"LINEAR","output":6}]},{"channels":[{"sampler":0,"target":{"node":14,"path":"translation"}}],"name":"move3","samplers":[{"input":2,"interpolation":"LINEAR","output":7}]}],"asset":{"generator":"Godot Engine v4.6.2.stable.official@71f334935c000924d403448e698df4441130df18","version":"2.0"},"bufferViews":[{"buffer":0,"byteLength":4},{"buffer":0,"byteLength":12,"byteOffset":4},{"buffer":0,"byteLength":8,"byteOffset":16},{"buffer":0,"byteLength":24,"byteOffset":24},{"buffer":0,"byteLength":12,"byteOffset":48},{"buffer":0,"byteLength":24,"byteOffset":60},{"buffer":0,"byteLength":12,"byteOffset":84},{"buffer":0,"byteLength":24,"byteOffset":96}],"buffers":[{"byteLength":120,"uri":"intro to game engines0.bin"}],"extensionsUsed":["GODOT_single_root"],"nodes":[{"children":[1,3,4,8,11,14,17,93,96,104,105,106],"name":"game"},{"children":[2],"name":"GameManager"},{"name":"score_label"},{"name":"TileMap"},{"children":[5,6,7],"name":"player"},{"name":"AnimatedSprite2D"},{"name":"CollisionShape2D"},{"name":"Camera2D"},{"children":[9,10],"name":"Platform"},{"name":"Sprite2D"},{"name":"CollisionShape2D2"},{"children":[12,13],"name":"Platform2"},{"name":"Sprite2D2"},{"name":"CollisionShape2D3"},{"children":[15,16],"name":"Platform3"},{"name":"Sprite2D3"},{"name":"CollisionShape2D4"},{"children":[18,21,24,27,30,33,36,39,42,45,48,51,54,57,60,63,66,69,72,75,78,81,84,87,90],"name":"pickups"},{"children":[19,20],"name":"COIN"},{"name":"Coin"},{"name":"CollisionShape2D5"},{"children":[22,23],"name":"COIN2"},{"name":"Coin2"},{"name":"CollisionShape2D6"},{"children":[25,26],"name":"COIN3"},{"name":"Coin3"},{"name":"CollisionShape2D7"},{"children":[28,29],"name":"COIN4"},{"name":"Coin4"},{"name":"CollisionShape2D8"},{"children":[31,32],"name":"COIN5"},{"name":"Coin5"},{"name":"CollisionShape2D9"},{"children":[34,35],"name":"COIN6"},{"name":"Coin6"},{"name":"CollisionShape2D10"},{"children":[37,38],"name":"COIN7"},{"name":"Coin7"},{"name":"CollisionShape2D11"},{"children":[40,41],"name":"COIN8"},{"name":"Coin8"},{"name":"CollisionShape2D12"},{"children":[43,44],"name":"COIN9"},{"name":"Coin9"},{"name":"CollisionShape2D13"},{"children":[46,47],"name":"COIN10"},{"name":"Coin10"},{"name":"CollisionShape2D14"},{"children":[49,50],"name":"COIN11"},{"name":"Coin11"},{"name":"CollisionShape2D15"},{"children":[52,53],"name":"COIN12"},{"name":"Coin12"},{"name":"CollisionShape2D16"},{"children":[55,56],"name":"COIN13"},{"name":"Coin13"},{"name":"CollisionShape2D17"},{"children":[58,59],"name":"COIN14"},{"name":"Coin14"},{"name":"CollisionShape2D18"},{"children":[61,62],"name":"COIN15"},{"name":"Coin15"},{"name":"CollisionShape2D19"},{"children":[64,65],"name":"COIN16"},{"name":"Coin16"},{"name":"CollisionShape2D20"},{"children":[67,68],"name":"COIN17"},{"name":"Coin17"},{"name":"CollisionShape2D21"},{"children":[70,71],"name":"COIN18"},{"name":"Coin18"},{"name":"CollisionShape2D22"},{"children":[73,74],"name":"COIN19"},{"name":"Coin19"},{"name":"CollisionShape2D23"},{"children":[76,77],"name":"COIN20"},{"name":"Coin20"},{"name":"CollisionShape2D24"},{"children":[79,80],"name":"COIN21"},{"name":"Coin21"},{"name":"CollisionShape2D25"},{"children":[82,83],"name":"COIN22"},{"name":"Coin22"},{"name":"CollisionShape2D26"},{"children":[85,86],"name":"COIN23"},{"name":"Coin23"},{"name":"CollisionShape2D27"},{"children":[88,89],"name":"COIN24"},{"name":"Coin24"},{"name":"CollisionShape2D28"},{"children":[91,92],"name":"COIN25"},{"name":"Coin25"},{"name":"CollisionShape2D29"},{"children":[94,95],"name":"killzone"},{"name":"CollisionShape2D30"},{"name":"Timer"},{"children":[97],"name":"slime"},{"children":[98],"name":"AnimatedSprite2D2"},{"children":[99,100,101],"name":"hitbox"},{"name":"CollisionShape2D31"},{"name":"Timer2"},{"children":[102,103],"name":"CollisionShape2D210"},{"name":"forward"},{"name":"backwards"},{"name":"Label"},{"name":"Label2"},{"name":"Label3"}],"scene":0,"scenes":[{"nodes":[0]}]}